<?xml version="1.0" encoding="utf-8"?>
<!-- Generator: Adobe Illustrator 25.0.1, SVG Export Plug-In . SVG Version: 6.00 Build 0)  -->
<svg version="1.1" id="Layer_1" xmlns="http://www.w3.org/2000/svg" xmlns:xlink="http://www.w3.org/1999/xlink" x="0px" y="0px"
	 viewBox="0 0 792 196.26" style="enable-background:new 0 0 792 196.26;" xml:space="preserve">
<style type="text/css">
	.st0{fill:#231F20;}
	.st1{fill-rule:evenodd;clip-rule:evenodd;fill:url(#SVGID_1_);}
	.st2{font-family:'Poppins-Regular';}
	.st3{font-size:36px;}
</style>
<g>
	<g>
		<g>
			<g>
				<path class="st0" d="M328.61,97.46h-20.97v-50.1h20.12c9.78,0,15.48,5.49,15.48,14.07c0,5.56-3.66,9.15-6.19,10.34
					c3.02,1.41,6.89,4.57,6.89,11.26C343.95,92.4,337.55,97.46,328.61,97.46z M326.99,56.09h-9.57v11.54h9.57
					c4.15,0,6.47-2.32,6.47-5.77C333.47,58.41,331.14,56.09,326.99,56.09z M327.63,76.42h-10.2v12.31h10.2
					c4.43,0,6.54-2.81,6.54-6.19C334.17,79.17,332.06,76.42,327.63,76.42z"/>
				<path class="st0" d="M380.53,97.46l-9.78-19.98h-7.04v19.98h-9.78v-50.1h19.63c10.2,0,16.25,6.97,16.25,15.34
					c0,7.04-4.29,11.4-9.15,13.16l11.19,21.6H380.53z M372.93,56.09h-9.22v13.23h9.22c4.29,0,7.11-2.75,7.11-6.61
					C380.03,58.83,377.22,56.09,372.93,56.09z"/>
				<path class="st0" d="M428.43,97.46l-2.96-8.87h-17.8l-3.02,8.87h-10.2l18.22-50.1h7.67l18.29,50.1H428.43z M416.75,62.14
					l-6.33,18.22h12.45L416.75,62.14z"/>
				<path class="st0" d="M474.43,97.46l-19.84-30.75v30.75h-9.78v-50.1h8.72l19.84,30.68V47.36h9.78v50.1H474.43z"/>
				<path class="st0" d="M526.14,92.68c-3.31,3.31-8.02,4.78-13.23,4.78h-18.08v-50.1h18.08c5.21,0,9.92,1.48,13.23,4.78
					c5.63,5.63,5.07,12.52,5.07,20.05C531.2,79.73,531.77,87.05,526.14,92.68z M519.31,59.18c-1.69-2.04-3.94-3.09-7.32-3.09h-7.39
					v32.65h7.39c3.38,0,5.63-1.06,7.32-3.1c1.83-2.25,2.11-5.84,2.11-13.44C521.42,64.6,521.14,61.44,519.31,59.18z"/>
				<path class="st0" d="M557.93,97.88c-5.35,0-9.85-1.83-13.51-5.49c-2.18-2.18-3.52-4.71-4.08-7.53
					c-0.56-2.81-0.85-6.96-0.85-12.45c0-5.49,0.28-9.64,0.85-12.46c0.56-2.89,1.9-5.35,4.08-7.53c3.66-3.66,8.16-5.49,13.51-5.49
					c9.64,0,16.75,5.63,18.44,15.83h-9.92c-1.06-4.29-3.73-7.11-8.44-7.11c-2.67,0-4.78,0.85-6.26,2.6
					c-2.04,2.18-2.46,4.43-2.46,14.14s0.42,11.96,2.46,14.14c1.48,1.76,3.59,2.6,6.26,2.6c4.71,0,7.39-2.81,8.44-7.11h9.92
					C574.67,92.26,567.5,97.88,557.93,97.88z"/>
				<path class="st0" d="M584.8,97.46v-50.1h9.78v41.37h22.73v8.72H584.8z"/>
				<path class="st0" d="M653.74,92.4c-3.52,3.52-7.81,5.49-13.51,5.49c-5.7,0-10.06-1.97-13.58-5.49
					c-5.06-5.06-4.92-11.33-4.92-19.98c0-8.66-0.14-14.92,4.92-19.98c3.52-3.52,7.88-5.49,13.58-5.49c5.7,0,9.99,1.97,13.51,5.49
					c5.07,5.07,5,11.33,5,19.98C658.74,81.07,658.81,87.33,653.74,92.4z M646.49,58.34c-1.41-1.62-3.59-2.67-6.26-2.67
					c-2.67,0-4.92,1.06-6.33,2.67c-1.9,2.11-2.39,4.43-2.39,14.07c0,9.64,0.49,11.96,2.39,14.07c1.41,1.62,3.66,2.67,6.33,2.67
					c2.67,0,4.86-1.06,6.26-2.67c1.9-2.11,2.46-4.43,2.46-14.07C648.96,62.77,648.39,60.45,646.49,58.34z"/>
				<path class="st0" d="M686.38,97.88c-10.27,0-18.44-6.96-18.44-17.59V47.36h9.78v32.58c0,5.77,3.38,9.22,8.66,9.22
					c5.28,0,8.72-3.45,8.72-9.22V47.36h9.71v32.93C704.81,90.92,696.65,97.88,686.38,97.88z"/>
				<path class="st0" d="M747.02,92.68c-3.31,3.31-8.02,4.78-13.23,4.78h-18.08v-50.1h18.08c5.21,0,9.92,1.48,13.23,4.78
					c5.63,5.63,5.07,12.52,5.07,20.05C752.08,79.73,752.64,87.05,747.02,92.68z M740.19,59.18c-1.69-2.04-3.94-3.09-7.32-3.09h-7.39
					v32.65h7.39c3.38,0,5.63-1.06,7.32-3.1c1.83-2.25,2.11-5.84,2.11-13.44C742.3,64.6,742.02,61.44,740.19,59.18z"/>
				<path class="st0" d="M762.36,97.55c-2.91,0-5.27-2.36-5.27-5.27s2.35-5.27,5.27-5.27c2.91,0,5.26,2.36,5.26,5.27
					S765.27,97.55,762.36,97.55z M762.36,88.2c-2.27,0-4.02,1.75-4.02,4.09c0,2.34,1.75,4.09,4.02,4.09c2.27,0,4.01-1.74,4.01-4.09
					C766.37,89.94,764.63,88.2,762.36,88.2z M763.31,95.08l-1.02-2.17h-0.6v2.17h-1.25v-5.6h2.28c1.13,0,1.86,0.83,1.86,1.76
					c0,0.77-0.5,1.26-1.03,1.48l1.18,2.36H763.31z M762.56,90.51h-0.87v1.45h0.87c0.46,0,0.77-0.33,0.77-0.73
					C763.33,90.84,763.03,90.51,762.56,90.51z"/>
			</g>
		</g>
	</g>
	<g>
		<linearGradient id="SVGID_1_" gradientUnits="userSpaceOnUse" x1="19.5362" y1="96.0036" x2="287.0517" y2="96.0036">
			<stop  offset="0" style="stop-color:#FFFFFF"/>
			<stop  offset="0" style="stop-color:#E04403"/>
			<stop  offset="0.0458" style="stop-color:#E14803"/>
			<stop  offset="0.0947" style="stop-color:#E35503"/>
			<stop  offset="0.1452" style="stop-color:#E76B02"/>
			<stop  offset="0.1967" style="stop-color:#EC8902"/>
			<stop  offset="0.2489" style="stop-color:#F3AF01"/>
			<stop  offset="0.3012" style="stop-color:#FBDE00"/>
			<stop  offset="0.3216" style="stop-color:#FFF200"/>
			<stop  offset="0.4054" style="stop-color:#C9DB00"/>
			<stop  offset="0.4783" style="stop-color:#A1CA00"/>
			<stop  offset="0.536" style="stop-color:#89C000"/>
			<stop  offset="0.5714" style="stop-color:#80BC00"/>
			<stop  offset="0.5764" style="stop-color:#7EBC06"/>
			<stop  offset="0.6197" style="stop-color:#6FBA3A"/>
			<stop  offset="0.6649" style="stop-color:#61B868"/>
			<stop  offset="0.7112" style="stop-color:#56B78E"/>
			<stop  offset="0.7589" style="stop-color:#4CB6AE"/>
			<stop  offset="0.8082" style="stop-color:#45B5C6"/>
			<stop  offset="0.8601" style="stop-color:#40B4D7"/>
			<stop  offset="0.916" style="stop-color:#3DB4E2"/>
			<stop  offset="0.9835" style="stop-color:#3CB4E5"/>
			<stop  offset="1" style="stop-color:#3CB4E5"/>
		</linearGradient>
		<path class="st1" d="M272.71,96.79c-5.23-5.39-11.47-9.48-18.3-12.09c0.06-1.04,0.1-2.08,0.1-3.13c0-13.24-5.16-25.69-14.52-35.06
			c-9.36-9.36-21.82-14.52-35.06-14.52c-4.25,0-8.47,0.55-12.54,1.61c-4.97-5.83-10.89-10.84-17.51-14.78
			c-10.75-6.39-23.07-9.77-35.63-9.77c-8.26,0-16.35,1.43-24.05,4.26c-7.44,2.73-14.31,6.69-20.44,11.76
			c-9.31,7.72-16.45,17.73-20.72,28.91c-5.1,0.82-10.07,2.25-14.87,4.28c-7.73,3.27-14.67,7.95-20.63,13.9
			c-5.96,5.96-10.63,12.9-13.9,20.63c-3.39,8.01-5.11,16.51-5.11,25.27c0,8.76,1.72,17.26,5.11,25.27
			c3.27,7.73,7.95,14.67,13.9,20.63c5.96,5.96,12.9,10.63,20.63,13.9c8.01,3.39,16.51,5.11,25.27,5.11h55.96h65.69h30.17
			c13.57,0,26.33-5.28,35.92-14.88c9.59-9.59,14.88-22.35,14.88-35.92C287.05,118.88,281.96,106.32,272.71,96.79z M236.25,168.17
			c-5.12,0-24.6,0-30.17,0c-4.33,0-13.03,0-21.13,0c-0.57-1.61-1.26-3.63-1.98-5.92c0.19,0.38-0.73-2.31-1.35-3.06
			c-1.96-2.47-6.24-5.47-7.75-7.05c-2.07-2.19-1.99-5.52-3.84-7.49c1.59,1.83,1.88,2.01,3.08,4.3c-0.16-1.59,0.61-4.03,1.28-4.97
			l1.3,5.77c-0.04-3.31,2.9-7.21,2.9-7.21s-0.31,3.87-1.43,7.09c0.21-0.2,3.76-3.62,3.76-3.62s-1.22,1.55-2.77,4.86
			c1.19-1.42,5.51-5.68,5.51-5.68s-0.88,2.66-1.65,4.72c3.32-3.16,6.17-9.29,6.17-9.29s-0.42,1.87-1.15,4.68
			c4.7-6.08,2.77-9.13,2.7-18.53c-0.06-9.4-4.58-16.79-8.02-20.18c-3.46-3.37-4.21-5.8-9.49-3.6c-4.44-2.77-10.97,2.06-12.96,5.61
			l0.13,0.31c-0.89,1.33-1.69,2.87-2.37,4.59c-0.83,1.98-2.64,7.67-2.78,9.77c-1.29,2.77,1.35,10.07,0.8,9.51
			c-0.84-0.95-3.17-10.58-4.65-12.55c0.05-1.6-0.04-1.71-1.05-2.94c-0.3-1.73-1.05-2.71-1.89-4.32c-1.15-2.23-1.18-10.45-3.92-22.17
			c-0.24-1.01,0.41-2.01,0.03-4.04c-1.91-10.27-3.9-18.87-5.29-24.08c-0.44-3.27-2.09-8.11-1.86-11.5
			c-0.08-0.87,0.04-1.31,0.38-2.14c0.16-0.46,0.72-0.62,1.12-0.95c0.96-1.04,1.9-2.04,2.9-3.05c1.54-2.63-0.35-2.63-0.24-5.19
			c0.21-2.11,0.26-3.96-2.13-3.43c-0.75-1.42-2.38-1.18-3.6-0.35c-1.42-0.8-1.91-0.78-3.03,0.57c-1.68-0.46-2.12,0.23-3.06,1.7
			c-1.98,2.2-0.91,6.64-0.36,10.1c0.36,0.87,0.52,1.61,0.6,2.37h0.06c-0.23,4.09-0.13,7.96,0.1,12.06
			c0.6,9.34,0.71,15.02,3.34,29.88c0.18,1.04,0.14,2.03,0.14,3.01c-0.82,7.12,1.53,11.55,1.82,20.48c-0.78,3.17-1.71,4.38-1.46,8.84
			c-0.34,3.56-0.27,7.21-0.47,10.25c-0.24,3.01-1.35,5.03-1.84,8.24c-2.16,5.4-0.43,10.09-0.86,15.92c0.37,3.4,0.3,5.39-0.08,8.69
			c-14.33,0-37.83,0-45.31,0c-27.68,0-50.12-22.44-50.12-50.12c0-27.68,22.44-50.12,50.12-50.12c0.3,0,0.6,0.01,0.9,0.01
			c5.05-25.16,27.26-44.11,53.91-44.11c20.5,0,38.39,11.23,47.84,27.86c5.22-3.12,11.32-4.92,17.84-4.92
			c19.21,0,34.79,15.58,34.79,34.79c0,4.96-1.04,9.68-2.91,13.96c0.21,0.22,0.42,0.43,0.62,0.65c19.34,0.62,34.84,16.49,34.84,35.99
			C272.26,152.05,256.14,168.17,236.25,168.17z"/>
	</g>
	<text transform="matrix(1 0 0 1 325.7971 156.7333)" class="st0 st2 st3">SUPERFAN ROI MARTECH</text>
</g>
</svg>
