<svg id="ezjsgcljn7q1" xmlns="http://www.w3.org/2000/svg" xmlns:xlink="http://www.w3.org/1999/xlink" viewBox="0 0 24 24" shape-rendering="geometricPrecision" text-rendering="geometricPrecision" >
<style>
<![CDATA[#ezjsgcljn7q4_to {animation: ezjsgcljn7q4_to__to 3000ms linear infinite normal forwards}@keyframes ezjsgcljn7q4_to__to { 0% {transform: translate(1.679426px,-1.131110px)} 96.666667% {transform: translate(7.073161px,-13.849998px)} 100% {transform: translate(6.673731px,-13.213635px)} }#ezjsgcljn7q10_to {animation: ezjsgcljn7q10_to__to 3000ms linear infinite normal forwards}@keyframes ezjsgcljn7q10_to__to { 0% {transform: translate(10.404629px,12.912604px)} 20% {transform: translate(10.404629px,12.912604px)} 46.666667% {transform: translate(10.916702px,12.421263px)} 66.666667% {transform: translate(9.520574px,14px)} 100% {transform: translate(9.520574px,14px)} }#ezjsgcljn7q18_to {animation: ezjsgcljn7q18_to__to 3000ms linear infinite normal forwards}@keyframes ezjsgcljn7q18_to__to { 0% {transform: translate(11.877778px,10.468889px)} 6.666667% {transform: translate(11.627229px,6.854912px)} 13.333333% {transform: translate(6.997765px,6.854912px)} 100% {transform: translate(6.997765px,6.854912px)} }#ezjsgcljn7q18_tr {animation: ezjsgcljn7q18_tr__tr 3000ms linear infinite normal forwards}@keyframes ezjsgcljn7q18_tr__tr { 0% {transform: rotate(0deg)} 20% {transform: rotate(0deg)} 50% {transform: rotate(-40deg)} 100% {transform: rotate(-40deg)} }]]></style><g id="ezjsgcljn7q2"><image id="ezjsgcljn7q3" width="800" height="532" xlink:href="598b825715010cb1b499b43f1716818b.jpg" preserveAspectRatio="xMidYMid meet" transform="matrix(0 0 0 0 -93.59999999999999 -6.94400000000000)"/><g id="ezjsgcljn7q4_to" transform="translate(1.679426,-1.131110)"><g id="ezjsgcljn7q4" transform="translate(0,0)"><polygon id="ezjsgcljn7q5" points="3.500000,16.400000 2.700000,16.200000 2,16.700000 2,15.900000 1.300000,15.500000 2.100000,15.200000 2.300000,14.400000 2.800000,15.100000 3.700000,15 3.200000,15.700000" transform="matrix(1 0 0 1 5.41670188000000 2.50275735000000)" fill="none" stroke="rgb(251,176,59)" stroke-width="0.250000" stroke-miterlimit="10"/>
<circle id="ezjsgcljn7q6" r="0.100000" transform="matrix(1 0 0 1 11.44472015000000 16.70000000000000)" fill="none" stroke="rgb(251,176,59)" stroke-width="0.250000" stroke-miterlimit="10"/><polygon id="ezjsgcljn7q7" points="14.700000,19.500000 13.900000,19.200000 13.200000,19.800000 13.200000,18.900000 12.500000,18.500000 13.300000,18.200000 13.600000,17.500000 14.100000,18.100000 14.900000,18 14.400000,18.700000" transform="matrix(1 0 0 1 -1.17942595000000 0)" fill="none" stroke="rgb(251,176,59)" stroke-width="0.250000" stroke-miterlimit="10"/>
<polygon id="ezjsgcljn7q8" points="13.200000,21.200000 12.300000,21 11.700000,21.500000 11.600000,20.700000 10.900000,20.200000 11.800000,20 12,19.200000 12.500000,19.800000 13.400000,19.800000 12.900000,20.400000" transform="matrix(1 0 0 1 3.56066536000000 -6.92873674000000)" fill="none" stroke="rgb(251,176,59)" stroke-width="0.250000" stroke-miterlimit="10"/><circle id="ezjsgcljn7q9" display="none" r="0.100000" transform="matrix(1 0 0 1 1 11.80000000000000)" fill="none" stroke="rgb(251,176,59)" stroke-width="0.250000" stroke-miterlimit="10"/><g id="ezjsgcljn7q10_to" transform="translate(10.404629,12.912604)">
<polygon id="ezjsgcljn7q10" points="3.800000,19.800000 3,19.600000 2.300000,20.100000 2.300000,19.300000 1.600000,18.900000 2.400000,18.600000 2.700000,17.800000 3.200000,18.500000 4,18.400000 3.500000,19.100000" transform="translate(-2.800000,-18.950000)" fill="none" stroke="rgb(251,176,59)" stroke-width="0.250000" stroke-miterlimit="10"/></g><circle id="ezjsgcljn7q11" r="0.100000" transform="matrix(1 0 0 1 13.81670188000000 13.90461068000000)" fill="none" stroke="rgb(251,176,59)" stroke-width="0.250000" stroke-miterlimit="10"/><circle id="ezjsgcljn7q12" r="0.100000" transform="matrix(1 0 0 1 7.25872928000000 15.44133969000000)" fill="none" stroke="rgb(251,176,59)" stroke-width="0.250000" stroke-miterlimit="10"/></g></g>
<path id="ezjsgcljn7q13" d="" fill="rgb(255,255,255)" stroke="rgb(251,176,59)" stroke-width="0.750000" stroke-miterlimit="10"/><g id="ezjsgcljn7q14"><rect id="ezjsgcljn7q15" width="13.160701" height="11.432789" rx="0" ry="0" transform="matrix(1 0 0.01745506492822 1 5.19907509082059 12.00000000000001)" fill="rgb(255,255,255)" stroke="rgb(251,176,59)" stroke-width="0.750000" stroke-miterlimit="10"/>
<line id="ezjsgcljn7q16" x1="15.200000" y1="12" x2="15.200000" y2="23.031226" fill="none" stroke="rgb(251,176,59)" stroke-width="0.750000" stroke-miterlimit="10"/>
<line id="ezjsgcljn7q17" x1="9.700000" y1="12.838937" x2="9.700000" y2="23.870163" transform="matrix(1 0 0 1 0 -0.83893700000000)" fill="none" stroke="rgb(251,176,59)" stroke-width="0.750000" stroke-miterlimit="10"/></g>
<g id="ezjsgcljn7q18_to" transform="translate(11.877778,10.468889)">
<g id="ezjsgcljn7q18_tr" transform="rotate(0)"><g id="ezjsgcljn7q18" transform="translate(-12.027778,-8.500000)">
<path id="ezjsgcljn7q19" d="M12.100000,9C11.800000,8.900000,11.500000,8.900000,11.200000,8.700000C11.100000,8.600000,10.900000,8.600000,10.800000,8.400000C10.700000,8.300000,10.800000,8.100000,10.800000,7.900000C10.800000,7.900000,10.800000,7.900000,10.800000,7.900000C10.800000,7.900000,10.800000,7.900000,10.800000,7.900000C11,7.900000,11.300000,8,11.400000,8.200000C11.500000,8.300000,11.600000,8.400000,11.800000,8.500000C12,8.700000,12,8.800000,12.100000,9C12.200000,9,12.200000,9,12.300000,9C12.400000,9,12.600000,8.900000,12.700000,8.900000C12.800000,8.900000,12.900000,8.800000,12.900000,8.800000C13.100000,8.700000,13.200000,8.600000,13.300000,8.400000C13.300000,8.300000,13.300000,8.200000,13.200000,8.200000C13.200000,8.200000,13.100000,8.200000,13.100000,8.200000C12.900000,8.200000,12.700000,8.200000,12.500000,8.300000C12.400000,8.400000,12.300000,8.600000,12.300000,8.700000C12.300000,8.800000,12.300000,8.900000,12.200000,9C12.200000,9,12.200000,9.100000,12.200000,9.100000L12.100000,9Z" fill="none" stroke="rgb(251,176,59)" stroke-width="0.250000" stroke-miterlimit="10"/>
<path id="ezjsgcljn7q20" d="M4.586383,9.300000L19.700000,9.300000L4.586383,9.300000Z" fill="none" stroke="rgb(251,176,59)" stroke-width="0.750000" stroke-miterlimit="10"/></g></g></g><path id="ezjsgcljn7q21" d="" fill="none" stroke="rgb(251,176,59)" stroke-width="0.250000" stroke-miterlimit="10"/>
<path id="ezjsgcljn7q22" d="" fill="none" stroke="rgb(251,176,59)" stroke-width="0.250000" stroke-miterlimit="10"/></g><g id="ezjsgcljn7q23" display="none"><image id="ezjsgcljn7q24" width="800" height="532" xlink:href="598b825715010cb1b499b43f1716818b.jpg" preserveAspectRatio="xMidYMid meet" transform="matrix(0 0 0 0 -93.59999999999999 -6.94400000000000)"/>
<rect id="ezjsgcljn7q25" width="13.300000" height="13.300000" rx="0" ry="0" transform="matrix(1 0 0 1 5.50000000000000 10.10000000000000)" fill="rgb(255,255,255)" stroke="rgb(251,176,59)" stroke-width="0.750000" stroke-miterlimit="10"/>
<path id="ezjsgcljn7q26" d="" fill="rgb(255,255,255)" stroke="rgb(251,176,59)" stroke-width="0.750000" stroke-miterlimit="10"/>
<line id="ezjsgcljn7q27" x1="9.700000" y1="10.100000" x2="9.700000" y2="23.100000" fill="none" stroke="rgb(251,176,59)" stroke-width="0.750000" stroke-miterlimit="10"/>
<line id="ezjsgcljn7q28" x1="15.200000" y1="10.100000" x2="15.200000" y2="23.100000" fill="none" stroke="rgb(251,176,59)" stroke-width="0.750000" stroke-miterlimit="10"/>
<path id="ezjsgcljn7q29" d="M4.600000,9.300000L19.700000,9.300000L4.600000,9.300000Z" fill="none" stroke="rgb(251,176,59)" stroke-width="0.750000" stroke-miterlimit="10"/><g id="ezjsgcljn7q30">
<path id="ezjsgcljn7q31" d="M12.100000,9C11.800000,8.900000,11.500000,8.900000,11.200000,8.700000C11.100000,8.600000,10.900000,8.600000,10.800000,8.400000C10.700000,8.300000,10.800000,8.100000,10.800000,7.900000C10.800000,7.900000,10.800000,7.900000,10.800000,7.900000C10.800000,7.900000,10.800000,7.900000,10.800000,7.900000C11,7.900000,11.300000,8,11.400000,8.200000C11.500000,8.300000,11.600000,8.400000,11.800000,8.500000C12,8.700000,12,8.800000,12.100000,9C12.200000,9,12.200000,9,12.300000,9C12.400000,9,12.600000,8.900000,12.700000,8.900000C12.800000,8.900000,12.900000,8.800000,12.900000,8.800000C13.100000,8.700000,13.200000,8.600000,13.300000,8.400000C13.300000,8.300000,13.300000,8.200000,13.200000,8.200000C13.200000,8.200000,13.100000,8.200000,13.100000,8.200000C12.900000,8.200000,12.700000,8.200000,12.500000,8.300000C12.400000,8.400000,12.300000,8.600000,12.300000,8.700000C12.300000,8.800000,12.300000,8.900000,12.200000,9C12.200000,9,12.200000,9.100000,12.200000,9.100000L12.100000,9Z" fill="none" stroke="rgb(251,176,59)" stroke-width="0.250000" stroke-miterlimit="10"/></g>
<path id="ezjsgcljn7q32" d="" fill="none" stroke="rgb(251,176,59)" stroke-width="0.250000" stroke-miterlimit="10"/></g></svg>