<svg id="ewnax11ery61" xmlns="http://www.w3.org/2000/svg" xmlns:xlink="http://www.w3.org/1999/xlink" viewBox="0 0 24 24" shape-rendering="geometricPrecision" text-rendering="geometricPrecision"><style><![CDATA[#ewnax11ery64_to {animation: ewnax11ery64_to__to 5000ms linear infinite normal forwards}@keyframes ewnax11ery64_to__to { 0% {transform: translate(13.368797px,13.599999px)} 4% {transform: translate(13.368797px,13.599999px)} 22% {transform: translate(13.721191px,12px)} 32% {transform: translate(13.721191px,12px)} 38% {transform: translate(13.721191px,12px)} 100% {transform: translate(13.721191px,12px)} }#ewnax11ery65_to {animation: ewnax11ery65_to__to 5000ms linear infinite normal forwards}@keyframes ewnax11ery65_to__to { 0% {transform: translate(9.478808px,9.199999px)} 32% {transform: translate(9.478808px,9.199999px)} 34% {transform: translate(9.478808px,8.199999px)} 52% {transform: translate(11.478808px,7.199999px)} 58% {transform: translate(9.478808px,9.199999px)} 80% {transform: translate(11.478808px,7.199999px)} 100% {transform: translate(13.478808px,3.199999px)} }#ewnax11ery66_to {animation: ewnax11ery66_to__to 5000ms linear infinite normal forwards}@keyframes ewnax11ery66_to__to { 0% {transform: translate(15px,9px)} 26% {transform: translate(15px,9px)} 80% {transform: translate(18px,6px)} 90% {transform: translate(19.478808px,7.200000px)} 98% {transform: translate(18.478808px,5.200000px)} 100% {transform: translate(18.478808px,5.200000px)} }#ewnax11ery67_to {animation: ewnax11ery67_to__to 5000ms linear infinite normal forwards}@keyframes ewnax11ery67_to__to { 0% {transform: translate(12px,9px)} 22% {transform: translate(12px,9px)} 28% {transform: translate(12px,8px)} 30% {transform: translate(12px,7px)} 36% {transform: translate(12.500000px,6px)} 44% {transform: translate(15px,5px)} 70% {transform: translate(13px,5px)} 80% {transform: translate(14.878808px,3.650000px)} 90% {transform: translate(15.878808px,2.650000px)} 98% {transform: translate(15.878808px,1.650000px)} 100% {transform: translate(15.878808px,1.650000px)} }#ewnax11ery68_to {animation: ewnax11ery68_to__to 5000ms linear infinite normal forwards}@keyframes ewnax11ery68_to__to { 0% {transform: translate(15.878808px,9.700000px)} 74% {transform: translate(15.878808px,9.700000px)} 76% {transform: translate(15px,12px)} 80% {transform: translate(16.878808px,7.700000px)} 88% {transform: translate(15.878808px,5.700000px)} 100% {transform: translate(12.878808px,5.700000px)} }#ewnax11ery69_to {animation: ewnax11ery69_to__to 5000ms linear infinite normal forwards}@keyframes ewnax11ery69_to__to { 0% {transform: translate(6.896272px,10.066666px)} 16% {transform: translate(6.896272px,10.066666px)} 26% {transform: translate(6.778807px,9.599999px)} 36% {transform: translate(7.778807px,8.599999px)} 44% {transform: translate(8.778807px,7.599999px)} 54% {transform: translate(13.778807px,7.599999px)} 58% {transform: translate(14.778807px,1.599999px)} 68% {transform: translate(14.778807px,1.599999px)} 80% {transform: translate(11.778807px,1.599999px)} 98% {transform: translate(12.778807px,0.599999px)} 100% {transform: translate(12.778807px,0.599999px)} }#ewnax11ery610_to {animation: ewnax11ery610_to__to 5000ms linear infinite normal forwards}@keyframes ewnax11ery610_to__to { 0% {transform: translate(16.799999px,12px)} 22% {transform: translate(16.799999px,12px)} 26% {transform: translate(16.799999px,12px)} 52% {transform: translate(16px,7px)} 68% {transform: translate(17.778807px,3.599999px)} 78% {transform: translate(19.778807px,2.599999px)} 84% {transform: translate(21.778807px,0.599999px)} 98% {transform: translate(21.778807px,-0.400001px)} 100% {transform: translate(21.778807px,-0.400001px)} }#ewnax11ery611_to {animation: ewnax11ery611_to__to 5000ms linear infinite normal forwards}@keyframes ewnax11ery611_to__to { 0% {transform: translate(12.646273px,11.866667px)} 16% {transform: translate(12.646273px,11.866667px)} 24% {transform: translate(12.646273px,9.400000px)} 30% {transform: translate(13.528808px,9.400000px)} 38% {transform: translate(12.528808px,8.400000px)} 42% {transform: translate(12.528808px,6.400000px)} 44% {transform: translate(12.528808px,5.400000px)} 52% {transform: translate(16.528808px,3.400000px)} 58% {transform: translate(17.528808px,1.400000px)} 70% {transform: translate(16.528808px,0.400000px)} 82% {transform: translate(14.528808px,1.400000px)} 92% {transform: translate(10.528808px,1.400000px)} 100% {transform: translate(10.528808px,0.400000px)} }#ewnax11ery612_to {animation: ewnax11ery612_to__to 5000ms linear infinite normal forwards}@keyframes ewnax11ery612_to__to { 0% {transform: translate(13.778808px,8.600000px)} 48% {transform: translate(13.778808px,8.600000px)} 54% {transform: translate(15.778808px,8.600000px)} 58% {transform: translate(18.778808px,8.600000px)} 60% {transform: translate(18.778808px,7.600000px)} 72% {transform: translate(15.778808px,4.600000px)} 88% {transform: translate(17.778808px,3.600000px)} 98% {transform: translate(15.778808px,4.600000px)} 100% {transform: translate(15.778808px,4.600000px)} }#ewnax11ery613_to {animation: ewnax11ery613_to__to 5000ms linear infinite normal forwards}@keyframes ewnax11ery613_to__to { 0% {transform: translate(10.928808px,10.650000px)} 44% {transform: translate(10.928808px,10.650000px)} 50% {transform: translate(12.928808px,9.650000px)} 56% {transform: translate(13.928808px,8.650000px)} 60% {transform: translate(19.928808px,3.650000px)} 74% {transform: translate(20.278808px,5.650000px)} 100% {transform: translate(20.928808px,1.650000px)} }#ewnax11ery614_to {animation: ewnax11ery614_to__to 5000ms linear infinite normal forwards}@keyframes ewnax11ery614_to__to { 0% {transform: translate(12.928808px,9.649999px)} 56% {transform: translate(12.928808px,9.649999px)} 74% {transform: translate(13.928808px,8.649999px)} 100% {transform: translate(14.928808px,7.649999px)} }#ewnax11ery615_to {animation: ewnax11ery615_to__to 5000ms linear infinite normal forwards}@keyframes ewnax11ery615_to__to { 0% {transform: translate(6.878808px,10.699999px)} 38% {transform: translate(6.878808px,10.699999px)} 46% {transform: translate(7.878808px,9.699999px)} 50% {transform: translate(8.878808px,8.699999px)} 54% {transform: translate(8.878808px,7.699999px)} 76% {transform: translate(7.878808px,8.699999px)} 82% {transform: translate(11.878808px,8.366666px)} 94% {transform: translate(11.878808px,7.699999px)} 100% {transform: translate(11.878808px,7.699999px)} }#ewnax11ery616_to {animation: ewnax11ery616_to__to 5000ms linear infinite normal forwards}@keyframes ewnax11ery616_to__to { 0% {transform: translate(7.878807px,9.699999px)} 42% {transform: translate(7.878807px,9.699999px)} 50% {transform: translate(9.878807px,8.699999px)} 88% {transform: translate(9.878807px,7.699999px)} 100% {transform: translate(9.878807px,7.699999px)} }#ewnax11ery627_to {animation: ewnax11ery627_to__to 5000ms linear infinite normal forwards}@keyframes ewnax11ery627_to__to { 0% {transform: translate(12.200002px,9.741323px)} 20% {transform: translate(7px,8.392563px)} 22% {transform: translate(8px,8.392563px)} 28% {transform: translate(7.412388px,8.392563px)} 100% {transform: translate(7.412388px,8.392563px)} }#ewnax11ery627_tr {animation: ewnax11ery627_tr__tr 5000ms linear infinite normal forwards}@keyframes ewnax11ery627_tr__tr { 0% {transform: rotate(0deg)} 14% {transform: rotate(0deg)} 40% {transform: rotate(-40deg)} 60% {transform: rotate(-35deg)} 100% {transform: rotate(-35deg)} }]]></style><g id="ewnax11ery62"><image id="ewnax11ery63" width="800" height="532" xlink:href="598b825715010cb1b499b43f1716818b.jpg" preserveAspectRatio="xMidYMid meet" transform="matrix(0 0 0 0 -93.59999999999999 -6.94400000000000)"/><g id="ewnax11ery64_to" transform="translate(13.368797,13.599999)"><g id="ewnax11ery64" transform="translate(-12.399999,-11.500000)"><g id="ewnax11ery65_to" transform="translate(9.478808,9.199999)"><polygon id="ewnax11ery65" points="9,20.300000 8.500000,20.100000 8.100000,20.400000 8.100000,19.900000 7.600000,19.700000 8.100000,19.500000 8.300000,19 8.600000,19.400000 9.200000,19.400000 8.800000,19.800000" transform="translate(-8.400000,-19.700000)" fill="none" stroke="rgb(251,176,59)" stroke-width="0.250000" stroke-miterlimit="10"/></g><g id="ewnax11ery66_to" transform="translate(15,9)"><polygon id="ewnax11ery66" points="14.100000,12.500000 13.500000,12.400000 13.100000,12.700000 13.100000,12.200000 12.600000,11.900000 13.200000,11.800000 13.300000,11.300000 13.600000,11.700000 14.200000,11.600000 13.900000,12.100000" transform="translate(-13.400000,-12)" fill="none" stroke="rgb(251,176,59)" stroke-width="0.250000" stroke-miterlimit="10"/></g><g id="ewnax11ery67_to" transform="translate(12,9)"><polygon id="ewnax11ery67" points="11.700000,13.700000 10.900000,13.500000 10.200000,14 10.200000,13.200000 9.500000,12.800000 10.300000,12.500000 10.500000,11.700000 11,12.400000 11.900000,12.300000 11.400000,13" transform="translate(-10.700000,-12.850000)" fill="none" stroke="rgb(251,176,59)" stroke-width="0.250000" stroke-miterlimit="10"/></g><g id="ewnax11ery68_to" transform="translate(15.878808,9.700000)"><circle id="ewnax11ery68" r="0.200000" transform="translate(0,-0)" fill="none" stroke="rgb(251,176,59)" stroke-width="0.250000" stroke-miterlimit="10"/></g><g id="ewnax11ery69_to" transform="translate(6.896272,10.066666)"><circle id="ewnax11ery69" r="0.100000" transform="translate(0.000001,0)" fill="none" stroke="rgb(251,176,59)" stroke-width="0.250000" stroke-miterlimit="10"/></g><g id="ewnax11ery610_to" transform="translate(16.799999,12)"><circle id="ewnax11ery610" r="0.100000" transform="translate(0.000001,0)" fill="rgb(255,255,255)" stroke="rgb(251,176,59)" stroke-width="0.750000" stroke-miterlimit="10"/></g><g id="ewnax11ery611_to" transform="translate(12.646273,11.866667)"><polygon id="ewnax11ery611" points="8.200000,17.400000 7.700000,17.200000 7.200000,17.600000 7.200000,16.900000 6.700000,16.600000 7.300000,16.400000 7.400000,15.800000 7.800000,16.300000 8.400000,16.300000 8,16.800000" transform="translate(-7.550000,-16.700000)" fill="none" stroke="rgb(251,176,59)" stroke-width="0.250000" stroke-miterlimit="10"/></g><g id="ewnax11ery612_to" transform="translate(13.778808,8.600000)"><circle id="ewnax11ery612" r="0.100000" transform="translate(0,-0.000001)" fill="none" stroke="rgb(251,176,59)" stroke-width="0.250000" stroke-miterlimit="10"/></g><g id="ewnax11ery613_to" transform="translate(10.928808,10.650000)"><polygon id="ewnax11ery613" points="12.100000,19.600000 11.200000,19.400000 10.500000,19.900000 10.500000,19.100000 9.800000,18.600000 10.600000,18.400000 10.900000,17.600000 11.400000,18.200000 12.300000,18.200000 11.800000,18.800000" transform="translate(-11.050000,-18.750000)" fill="none" stroke="rgb(251,176,59)" stroke-width="0.250000" stroke-miterlimit="10"/></g><g id="ewnax11ery614_to" transform="translate(12.928808,9.649999)"><polygon id="ewnax11ery614" points="8.600000,13.900000 7.800000,13.700000 7.100000,14.200000 7.100000,13.400000 6.400000,13 7.200000,12.700000 7.500000,11.900000 8,12.600000 8.900000,12.500000 8.300000,13.200000" transform="translate(-7.650000,-13.050000)" fill="none" stroke="rgb(251,176,59)" stroke-width="0.250000" stroke-miterlimit="10"/></g><g id="ewnax11ery615_to" transform="translate(6.878808,10.699999)"><circle id="ewnax11ery615" r="0.200000" transform="translate(0,0)" fill="none" stroke="rgb(251,176,59)" stroke-width="0.250000" stroke-miterlimit="10"/></g><g id="ewnax11ery616_to" transform="translate(7.878807,9.699999)"><circle id="ewnax11ery616" r="0.200000" transform="translate(0.000001,0)" fill="none" stroke="rgb(251,176,59)" stroke-width="0.250000" stroke-miterlimit="10"/></g></g></g><path id="ewnax11ery617" d="" fill="rgb(255,255,255)" stroke="rgb(251,176,59)" stroke-width="0.750000" stroke-miterlimit="10"/><g id="ewnax11ery618"><path id="ewnax11ery619" d="M5.500000,22.700000C5.500000,23.300000,5.900000,23.700000,6.500000,23.700000L17.800000,23.700000C18.400000,23.700000,18.800000,23.300000,18.800000,22.700000L18.800000,11.400000C18.800000,10.800000,18.400000,10.400000,17.800000,10.400000L6.500000,10.400000C5.900000,10.400000,5.500000,10.800000,5.500000,11.400000L5.500000,22.700000Z" fill="rgb(255,255,255)" stroke="none" stroke-width="1"/><path id="ewnax11ery620" d="M5.500000,22.857895C5.500000,23.363158,5.900000,23.700000,6.500000,23.700000L17.800000,23.700000C18.400000,23.700000,18.800000,23.363158,18.800000,22.857895L18.800000,13.342105C18.800000,12.836842,18.400000,12.500000,17.800000,12.500000L6.500000,12.500000C5.900000,12.500000,5.500000,12.836842,5.500000,13.342105L5.500000,22.857895Z" transform="matrix(1 0 0 1 0.25000105000001 -2.10000018999999)" fill="none" stroke="rgb(251,176,59)" stroke-width="0.750000" stroke-miterlimit="10"/><g id="ewnax11ery621" transform="matrix(1 0 0 1 0.30000019000000 0.29999924000000)"><line id="ewnax11ery622" x1="9.700000" y1="11.158678" x2="9.700000" y2="22.358677" transform="matrix(1 0 0 1 -0.35239486000000 -1.05867681000000)" fill="none" stroke="rgb(251,176,59)" stroke-width="0.750000" stroke-miterlimit="10"/><g id="ewnax11ery623"><path id="ewnax11ery624" d="M15.200000,10.100001L15.100000,21.500000L15.200000,10.100001Z" fill="none" stroke="rgb(251,176,59)" stroke-width="0.750000" stroke-miterlimit="10"/></g></g></g><path id="ewnax11ery625" d="" fill="none" stroke="rgb(251,176,59)" stroke-width="0.250000" stroke-miterlimit="10"/><path id="ewnax11ery626" d="" fill="none" stroke="rgb(251,176,59)" stroke-width="0.250000" stroke-miterlimit="10"/><g id="ewnax11ery627_to" transform="translate(12.200002,9.741323)"><g id="ewnax11ery627_tr" transform="rotate(0)"><g id="ewnax11ery627" transform="translate(-12.100001,-9.900000)"><path id="ewnax11ery628" d="M5.300000,9.900000C5.300000,9.900000,5.400000,9.900000,5.300000,9.900000L18.900000,9.900000C18.900000,9.900000,18.900000,9.900000,18.900000,9.900000C18.900000,9.900000,18.900000,9.900000,18.900000,9.900000L5.300000,9.900000C5.400000,9.900000,5.300000,9.900000,5.300000,9.900000C5.300000,9.900000,5.300000,9.900000,5.300000,9.900000Z" transform="matrix(1.05000000000000 0 0 1.04000000000000 -0.60500004291534 -0.39599998474121)" fill="none" stroke="rgb(251,176,59)" stroke-width="0.750000" stroke-miterlimit="10"/><path id="ewnax11ery629" d="M12.300000,9.400000C12.300000,9.400000,12.500000,9.100000,12.700000,8.900000C13.100000,8.400000,13.200000,8.200000,13.500000,8.100000C13.500000,8.100000,13.500000,8.100000,13.500000,8.100000C13.600000,8.100000,14,7.900000,14.300000,8.200000C14.300000,8.200000,14.500000,8.300000,14.500000,8.600000C14.500000,8.700000,14.500000,8.800000,14.400000,8.900000C14.100000,9.400000,13.300000,9.500000,12.300000,9.400000Z" fill="none" stroke="rgb(251,176,59)" stroke-width="0.250000" stroke-miterlimit="10"/><path id="ewnax11ery630" d="M11.200000,9.100000C10.400000,8.900000,10,9.100000,9.900000,8.900000C9.800000,8.600000,10.400000,7.800000,11,7.800000C11.900000,7.800000,12.300000,9.300000,12.100000,9.400000C12.100000,9.500000,11.800000,9.200000,11.200000,9.100000Z" fill="none" stroke="rgb(251,176,59)" stroke-width="0.250000" stroke-miterlimit="10"/></g></g></g><path id="ewnax11ery631" d="" fill="none" stroke="rgb(251,176,59)" stroke-width="0.250000" stroke-miterlimit="10"/><path id="ewnax11ery632" d="" fill="none" stroke="rgb(251,176,59)" stroke-width="0.250000" stroke-miterlimit="10"/><path id="ewnax11ery633" d="" fill="none" stroke="rgb(251,176,59)" stroke-width="0.250000" stroke-miterlimit="10"/><path id="ewnax11ery634" d="" fill="none" stroke="rgb(251,176,59)" stroke-width="0.250000" stroke-miterlimit="10"/><path id="ewnax11ery635" d="" fill="none" stroke="rgb(251,176,59)" stroke-width="0.250000" stroke-miterlimit="10"/><path id="ewnax11ery636" d="" fill="none" stroke="rgb(251,176,59)" stroke-width="0.250000" stroke-miterlimit="10"/></g><g id="ewnax11ery637" display="none"><image id="ewnax11ery638" width="800" height="532" xlink:href="598b825715010cb1b499b43f1716818b.jpg" preserveAspectRatio="xMidYMid meet" transform="matrix(0 0 0 0 -93.59999999999999 -6.94400000000000)"/><rect id="ewnax11ery639" width="13.300000" height="13.300000" rx="0" ry="0" transform="matrix(1 0 0 1 5.50000000000000 10.10000000000000)" fill="rgb(255,255,255)" stroke="rgb(251,176,59)" stroke-width="0.750000" stroke-miterlimit="10"/><path id="ewnax11ery640" d="" fill="rgb(255,255,255)" stroke="rgb(251,176,59)" stroke-width="0.750000" stroke-miterlimit="10"/><line id="ewnax11ery641" x1="9.700000" y1="10.100000" x2="9.700000" y2="23.100000" fill="none" stroke="rgb(251,176,59)" stroke-width="0.750000" stroke-miterlimit="10"/><line id="ewnax11ery642" x1="15.200000" y1="10.100000" x2="15.200000" y2="23.100000" fill="none" stroke="rgb(251,176,59)" stroke-width="0.750000" stroke-miterlimit="10"/><path id="ewnax11ery643" d="M4.600000,9.300000L19.700000,9.300000L4.600000,9.300000Z" fill="none" stroke="rgb(251,176,59)" stroke-width="0.750000" stroke-miterlimit="10"/><g id="ewnax11ery644"><path id="ewnax11ery645" d="M12.100000,9C11.800000,8.900000,11.500000,8.900000,11.200000,8.700000C11.100000,8.600000,10.900000,8.600000,10.800000,8.400000C10.700000,8.300000,10.800000,8.100000,10.800000,7.900000C10.800000,7.900000,10.800000,7.900000,10.800000,7.900000C10.800000,7.900000,10.800000,7.900000,10.800000,7.900000C11,7.900000,11.300000,8,11.400000,8.200000C11.500000,8.300000,11.600000,8.400000,11.800000,8.500000C12,8.700000,12,8.800000,12.100000,9C12.200000,9,12.200000,9,12.300000,9C12.400000,9,12.600000,8.900000,12.700000,8.900000C12.800000,8.900000,12.900000,8.800000,12.900000,8.800000C13.100000,8.700000,13.200000,8.600000,13.300000,8.400000C13.300000,8.300000,13.300000,8.200000,13.200000,8.200000C13.200000,8.200000,13.100000,8.200000,13.100000,8.200000C12.900000,8.200000,12.700000,8.200000,12.500000,8.300000C12.400000,8.400000,12.300000,8.600000,12.300000,8.700000C12.300000,8.800000,12.300000,8.900000,12.200000,9C12.200000,9,12.200000,9.100000,12.200000,9.100000L12.100000,9Z" fill="none" stroke="rgb(251,176,59)" stroke-width="0.250000" stroke-miterlimit="10"/></g><path id="ewnax11ery646" d="" fill="none" stroke="rgb(251,176,59)" stroke-width="0.250000" stroke-miterlimit="10"/></g></svg>