<svg id="e848onig43n51" xmlns="http://www.w3.org/2000/svg" xmlns:xlink="http://www.w3.org/1999/xlink" viewBox="0 0 24 24" shape-rendering="geometricPrecision" text-rendering="geometricPrecision"><style><![CDATA[#e848onig43n54_to {animation: e848onig43n54_to__to 3000ms linear infinite normal forwards}@keyframes e848onig43n54_to__to { 0% {transform: translate(13.368797px,13.599999px)} 6.666667% {transform: translate(13.368797px,13.599999px)} 36.666667% {transform: translate(13.721191px,12px)} 53.333333% {transform: translate(13.721191px,12px)} 63.333333% {transform: translate(13.721191px,12px)} 100% {transform: translate(13.721191px,12px)} }#e848onig43n55_to {animation: e848onig43n55_to__to 3000ms linear infinite normal forwards}@keyframes e848onig43n55_to__to { 0% {transform: translate(9.478808px,9.199999px)} 53.333333% {transform: translate(9.478808px,9.199999px)} 56.666667% {transform: translate(9.478808px,8.199999px)} 86.666667% {transform: translate(11.478808px,7.199999px)} 96.666667% {transform: translate(9.478808px,9.199999px)} 100% {transform: translate(11.478808px,7.199999px)} }#e848onig43n56_to {animation: e848onig43n56_to__to 3000ms linear infinite normal forwards}@keyframes e848onig43n56_to__to { 0% {transform: translate(15px,9px)} 43.333333% {transform: translate(15px,9px)} 100% {transform: translate(18px,6px)} }#e848onig43n57_to {animation: e848onig43n57_to__to 3000ms linear infinite normal forwards}@keyframes e848onig43n57_to__to { 0% {transform: translate(12px,9px)} 36.666667% {transform: translate(12px,9px)} 46.666667% {transform: translate(12px,8px)} 50% {transform: translate(12px,7px)} 60% {transform: translate(12.500000px,6px)} 73.333333% {transform: translate(15px,5px)} 96.666667% {transform: translate(13px,5px)} 100% {transform: translate(13px,5px)} }#e848onig43n59_to {animation: e848onig43n59_to__to 3000ms linear infinite normal forwards}@keyframes e848onig43n59_to__to { 0% {transform: translate(6.896272px,10.066666px)} 26.666667% {transform: translate(6.896272px,10.066666px)} 43.333333% {transform: translate(6.778807px,9.599999px)} 60% {transform: translate(7.778807px,8.599999px)} 73.333333% {transform: translate(8.778807px,7.599999px)} 90% {transform: translate(13.778807px,7.599999px)} 96.666667% {transform: translate(14.778807px,1.599999px)} 100% {transform: translate(14.778807px,1.599999px)} }#e848onig43n510_to {animation: e848onig43n510_to__to 3000ms linear infinite normal forwards}@keyframes e848onig43n510_to__to { 0% {transform: translate(16.799999px,12px)} 36.666667% {transform: translate(16.799999px,12px)} 43.333333% {transform: translate(16.799999px,12px)} 86.666667% {transform: translate(16px,7px)} 100% {transform: translate(16px,7px)} }#e848onig43n511_to {animation: e848onig43n511_to__to 3000ms linear infinite normal forwards}@keyframes e848onig43n511_to__to { 0% {transform: translate(12.646273px,11.866667px)} 26.666667% {transform: translate(12.646273px,11.866667px)} 40% {transform: translate(12.646273px,9.400000px)} 50% {transform: translate(13.528808px,9.400000px)} 63.333333% {transform: translate(12.528808px,8.400000px)} 70% {transform: translate(12.528808px,6.400000px)} 73.333333% {transform: translate(12.528808px,5.400000px)} 86.666667% {transform: translate(16.528808px,3.400000px)} 96.666667% {transform: translate(17.528808px,1.400000px)} 100% {transform: translate(17.528808px,1.400000px)} }#e848onig43n512_to {animation: e848onig43n512_to__to 3000ms linear infinite normal forwards}@keyframes e848onig43n512_to__to { 0% {transform: translate(13.778808px,8.600000px)} 80% {transform: translate(13.778808px,8.600000px)} 90% {transform: translate(15.778808px,8.600000px)} 96.666667% {transform: translate(18.778808px,8.600000px)} 100% {transform: translate(18.778808px,7.600000px)} }#e848onig43n513_to {animation: e848onig43n513_to__to 3000ms linear infinite normal forwards}@keyframes e848onig43n513_to__to { 0% {transform: translate(10.928808px,10.650000px)} 73.333333% {transform: translate(10.928808px,10.650000px)} 83.333333% {transform: translate(12.928808px,9.650000px)} 93.333333% {transform: translate(13.928808px,8.650000px)} 100% {transform: translate(19.928808px,3.650000px)} }#e848onig43n514_to {animation: e848onig43n514_to__to 3000ms linear infinite normal forwards}@keyframes e848onig43n514_to__to { 0% {transform: translate(12.928808px,9.649999px)} 93.333333% {transform: translate(12.928808px,9.649999px)} 100% {transform: translate(13.928808px,8.649999px)} }#e848onig43n515_to {animation: e848onig43n515_to__to 3000ms linear infinite normal forwards}@keyframes e848onig43n515_to__to { 0% {transform: translate(6.878808px,10.699999px)} 63.333333% {transform: translate(6.878808px,10.699999px)} 76.666667% {transform: translate(7.878808px,9.699999px)} 83.333333% {transform: translate(8.878808px,8.699999px)} 90% {transform: translate(8.878808px,7.699999px)} 96.666667% {transform: translate(11.878808px,7.699999px)} 100% {transform: translate(11.878808px,7.699999px)} }#e848onig43n516_to {animation: e848onig43n516_to__to 3000ms linear infinite normal forwards}@keyframes e848onig43n516_to__to { 0% {transform: translate(7.878807px,9.699999px)} 70% {transform: translate(7.878807px,9.699999px)} 83.333333% {transform: translate(9.878807px,8.699999px)} 96.666667% {transform: translate(9.878807px,7.699999px)} 100% {transform: translate(9.878807px,7.699999px)} }#e848onig43n527_to {animation: e848onig43n527_to__to 3000ms linear infinite normal forwards}@keyframes e848onig43n527_to__to { 0% {transform: translate(12.200002px,9.741323px)} 33.333333% {transform: translate(7px,8.392563px)} 36.666667% {transform: translate(8px,8.392563px)} 46.666667% {transform: translate(7.412388px,8.392563px)} 100% {transform: translate(7.412388px,8.392563px)} }#e848onig43n527_tr {animation: e848onig43n527_tr__tr 3000ms linear infinite normal forwards}@keyframes e848onig43n527_tr__tr { 0% {transform: rotate(0deg)} 23.333333% {transform: rotate(0deg)} 66.666667% {transform: rotate(-40deg)} 100% {transform: rotate(-35deg)} }]]></style><g id="e848onig43n52"><image id="e848onig43n53" width="800" height="532" xlink:href="598b825715010cb1b499b43f1716818b.jpg" preserveAspectRatio="xMidYMid meet" transform="matrix(0 0 0 0 -93.59999999999999 -6.94400000000000)"/><g id="e848onig43n54_to" transform="translate(13.368797,13.599999)"><g id="e848onig43n54" transform="translate(-12.399999,-11.500000)"><g id="e848onig43n55_to" transform="translate(9.478808,9.199999)"><polygon id="e848onig43n55" points="9,20.300000 8.500000,20.100000 8.100000,20.400000 8.100000,19.900000 7.600000,19.700000 8.100000,19.500000 8.300000,19 8.600000,19.400000 9.200000,19.400000 8.800000,19.800000" transform="translate(-8.400000,-19.700000)" fill="none" stroke="rgb(251,176,59)" stroke-width="0.250000" stroke-miterlimit="10"/></g><g id="e848onig43n56_to" transform="translate(15,9)"><polygon id="e848onig43n56" points="14.100000,12.500000 13.500000,12.400000 13.100000,12.700000 13.100000,12.200000 12.600000,11.900000 13.200000,11.800000 13.300000,11.300000 13.600000,11.700000 14.200000,11.600000 13.900000,12.100000" transform="translate(-13.400000,-12)" fill="none" stroke="rgb(251,176,59)" stroke-width="0.250000" stroke-miterlimit="10"/></g><g id="e848onig43n57_to" transform="translate(12,9)"><polygon id="e848onig43n57" points="11.700000,13.700000 10.900000,13.500000 10.200000,14 10.200000,13.200000 9.500000,12.800000 10.300000,12.500000 10.500000,11.700000 11,12.400000 11.900000,12.300000 11.400000,13" transform="translate(-10.700000,-12.850000)" fill="none" stroke="rgb(251,176,59)" stroke-width="0.250000" stroke-miterlimit="10"/></g><circle id="e848onig43n58" r="0.200000" transform="matrix(1 0 0 1 15.00000019073486 11.99999980926514)" fill="none" stroke="rgb(251,176,59)" stroke-width="0.250000" stroke-miterlimit="10"/><g id="e848onig43n59_to" transform="translate(6.896272,10.066666)"><circle id="e848onig43n59" r="0.100000" transform="translate(0.000001,0)" fill="none" stroke="rgb(251,176,59)" stroke-width="0.250000" stroke-miterlimit="10"/></g><g id="e848onig43n510_to" transform="translate(16.799999,12)"><circle id="e848onig43n510" r="0.100000" transform="translate(0.000001,0)" fill="rgb(255,255,255)" stroke="rgb(251,176,59)" stroke-width="0.750000" stroke-miterlimit="10"/></g><g id="e848onig43n511_to" transform="translate(12.646273,11.866667)"><polygon id="e848onig43n511" points="8.200000,17.400000 7.700000,17.200000 7.200000,17.600000 7.200000,16.900000 6.700000,16.600000 7.300000,16.400000 7.400000,15.800000 7.800000,16.300000 8.400000,16.300000 8,16.800000" transform="translate(-7.550000,-16.700000)" fill="none" stroke="rgb(251,176,59)" stroke-width="0.250000" stroke-miterlimit="10"/></g><g id="e848onig43n512_to" transform="translate(13.778808,8.600000)"><circle id="e848onig43n512" r="0.100000" transform="translate(0,-0.000001)" fill="none" stroke="rgb(251,176,59)" stroke-width="0.250000" stroke-miterlimit="10"/></g><g id="e848onig43n513_to" transform="translate(10.928808,10.650000)"><polygon id="e848onig43n513" points="12.100000,19.600000 11.200000,19.400000 10.500000,19.900000 10.500000,19.100000 9.800000,18.600000 10.600000,18.400000 10.900000,17.600000 11.400000,18.200000 12.300000,18.200000 11.800000,18.800000" transform="translate(-11.050000,-18.750000)" fill="none" stroke="rgb(251,176,59)" stroke-width="0.250000" stroke-miterlimit="10"/></g><g id="e848onig43n514_to" transform="translate(12.928808,9.649999)"><polygon id="e848onig43n514" points="8.600000,13.900000 7.800000,13.700000 7.100000,14.200000 7.100000,13.400000 6.400000,13 7.200000,12.700000 7.500000,11.900000 8,12.600000 8.900000,12.500000 8.300000,13.200000" transform="translate(-7.650000,-13.050000)" fill="none" stroke="rgb(251,176,59)" stroke-width="0.250000" stroke-miterlimit="10"/></g><g id="e848onig43n515_to" transform="translate(6.878808,10.699999)"><circle id="e848onig43n515" r="0.200000" transform="translate(0,0)" fill="none" stroke="rgb(251,176,59)" stroke-width="0.250000" stroke-miterlimit="10"/></g><g id="e848onig43n516_to" transform="translate(7.878807,9.699999)"><circle id="e848onig43n516" r="0.200000" transform="translate(0.000001,0)" fill="none" stroke="rgb(251,176,59)" stroke-width="0.250000" stroke-miterlimit="10"/></g></g></g><path id="e848onig43n517" d="" fill="rgb(255,255,255)" stroke="rgb(251,176,59)" stroke-width="0.750000" stroke-miterlimit="10"/><g id="e848onig43n518"><path id="e848onig43n519" d="M5.500000,22.700000C5.500000,23.300000,5.900000,23.700000,6.500000,23.700000L17.800000,23.700000C18.400000,23.700000,18.800000,23.300000,18.800000,22.700000L18.800000,11.400000C18.800000,10.800000,18.400000,10.400000,17.800000,10.400000L6.500000,10.400000C5.900000,10.400000,5.500000,10.800000,5.500000,11.400000L5.500000,22.700000Z" fill="rgb(255,255,255)" stroke="none" stroke-width="1"/><path id="e848onig43n520" d="M5.500000,22.700000C5.500000,23.300000,5.900000,23.700000,6.500000,23.700000L17.800000,23.700000C18.400000,23.700000,18.800000,23.300000,18.800000,22.700000L18.800000,11.400000C18.800000,10.800000,18.400000,10.400000,17.800000,10.400000L6.500000,10.400000C5.900000,10.400000,5.500000,10.800000,5.500000,11.400000L5.500000,22.700000Z" fill="none" stroke="rgb(251,176,59)" stroke-width="0.750000" stroke-miterlimit="10"/><g id="e848onig43n521"><line id="e848onig43n522" x1="9.700000" y1="10.400000" x2="9.700000" y2="23.400000" fill="none" stroke="rgb(251,176,59)" stroke-width="0.750000" stroke-miterlimit="10"/><g id="e848onig43n523"><path id="e848onig43n524" d="M15.200000,10.400000L15.100000,23.700000L15.200000,10.400000Z" fill="none" stroke="rgb(251,176,59)" stroke-width="0.750000" stroke-miterlimit="10"/></g></g></g><path id="e848onig43n525" d="" fill="none" stroke="rgb(251,176,59)" stroke-width="0.250000" stroke-miterlimit="10"/><path id="e848onig43n526" d="" fill="none" stroke="rgb(251,176,59)" stroke-width="0.250000" stroke-miterlimit="10"/><g id="e848onig43n527_to" transform="translate(12.200002,9.741323)"><g id="e848onig43n527_tr" transform="rotate(0)"><g id="e848onig43n527" transform="translate(-12.100001,-9.900000)"><path id="e848onig43n528" d="M5.300000,9.900000C5.300000,9.900000,5.400000,9.900000,5.300000,9.900000L18.900000,9.900000C18.900000,9.900000,18.900000,9.900000,18.900000,9.900000C18.900000,9.900000,18.900000,9.900000,18.900000,9.900000L5.300000,9.900000C5.400000,9.900000,5.300000,9.900000,5.300000,9.900000C5.300000,9.900000,5.300000,9.900000,5.300000,9.900000Z" transform="matrix(1.05000000000000 0 0 1.04000000000000 -0.60500004291534 -0.39599998474121)" fill="none" stroke="rgb(251,176,59)" stroke-width="0.750000" stroke-miterlimit="10"/><path id="e848onig43n529" d="M12.300000,9.400000C12.300000,9.400000,12.500000,9.100000,12.700000,8.900000C13.100000,8.400000,13.200000,8.200000,13.500000,8.100000C13.500000,8.100000,13.500000,8.100000,13.500000,8.100000C13.600000,8.100000,14,7.900000,14.300000,8.200000C14.300000,8.200000,14.500000,8.300000,14.500000,8.600000C14.500000,8.700000,14.500000,8.800000,14.400000,8.900000C14.100000,9.400000,13.300000,9.500000,12.300000,9.400000Z" fill="none" stroke="rgb(251,176,59)" stroke-width="0.250000" stroke-miterlimit="10"/><path id="e848onig43n530" d="M11.200000,9.100000C10.400000,8.900000,10,9.100000,9.900000,8.900000C9.800000,8.600000,10.400000,7.800000,11,7.800000C11.900000,7.800000,12.300000,9.300000,12.100000,9.400000C12.100000,9.500000,11.800000,9.200000,11.200000,9.100000Z" fill="none" stroke="rgb(251,176,59)" stroke-width="0.250000" stroke-miterlimit="10"/></g></g></g><path id="e848onig43n531" d="" fill="none" stroke="rgb(251,176,59)" stroke-width="0.250000" stroke-miterlimit="10"/><path id="e848onig43n532" d="" fill="none" stroke="rgb(251,176,59)" stroke-width="0.250000" stroke-miterlimit="10"/><path id="e848onig43n533" d="" fill="none" stroke="rgb(251,176,59)" stroke-width="0.250000" stroke-miterlimit="10"/><path id="e848onig43n534" d="" fill="none" stroke="rgb(251,176,59)" stroke-width="0.250000" stroke-miterlimit="10"/><path id="e848onig43n535" d="" fill="none" stroke="rgb(251,176,59)" stroke-width="0.250000" stroke-miterlimit="10"/><path id="e848onig43n536" d="" fill="none" stroke="rgb(251,176,59)" stroke-width="0.250000" stroke-miterlimit="10"/></g><g id="e848onig43n537" display="none"><image id="e848onig43n538" width="800" height="532" xlink:href="598b825715010cb1b499b43f1716818b.jpg" preserveAspectRatio="xMidYMid meet" transform="matrix(0 0 0 0 -93.59999999999999 -6.94400000000000)"/><rect id="e848onig43n539" width="13.300000" height="13.300000" rx="0" ry="0" transform="matrix(1 0 0 1 5.50000000000000 10.10000000000000)" fill="rgb(255,255,255)" stroke="rgb(251,176,59)" stroke-width="0.750000" stroke-miterlimit="10"/><path id="e848onig43n540" d="" fill="rgb(255,255,255)" stroke="rgb(251,176,59)" stroke-width="0.750000" stroke-miterlimit="10"/><line id="e848onig43n541" x1="9.700000" y1="10.100000" x2="9.700000" y2="23.100000" fill="none" stroke="rgb(251,176,59)" stroke-width="0.750000" stroke-miterlimit="10"/><line id="e848onig43n542" x1="15.200000" y1="10.100000" x2="15.200000" y2="23.100000" fill="none" stroke="rgb(251,176,59)" stroke-width="0.750000" stroke-miterlimit="10"/><path id="e848onig43n543" d="M4.600000,9.300000L19.700000,9.300000L4.600000,9.300000Z" fill="none" stroke="rgb(251,176,59)" stroke-width="0.750000" stroke-miterlimit="10"/><g id="e848onig43n544"><path id="e848onig43n545" d="M12.100000,9C11.800000,8.900000,11.500000,8.900000,11.200000,8.700000C11.100000,8.600000,10.900000,8.600000,10.800000,8.400000C10.700000,8.300000,10.800000,8.100000,10.800000,7.900000C10.800000,7.900000,10.800000,7.900000,10.800000,7.900000C10.800000,7.900000,10.800000,7.900000,10.800000,7.900000C11,7.900000,11.300000,8,11.400000,8.200000C11.500000,8.300000,11.600000,8.400000,11.800000,8.500000C12,8.700000,12,8.800000,12.100000,9C12.200000,9,12.200000,9,12.300000,9C12.400000,9,12.600000,8.900000,12.700000,8.900000C12.800000,8.900000,12.900000,8.800000,12.900000,8.800000C13.100000,8.700000,13.200000,8.600000,13.300000,8.400000C13.300000,8.300000,13.300000,8.200000,13.200000,8.200000C13.200000,8.200000,13.100000,8.200000,13.100000,8.200000C12.900000,8.200000,12.700000,8.200000,12.500000,8.300000C12.400000,8.400000,12.300000,8.600000,12.300000,8.700000C12.300000,8.800000,12.300000,8.900000,12.200000,9C12.200000,9,12.200000,9.100000,12.200000,9.100000L12.100000,9Z" fill="none" stroke="rgb(251,176,59)" stroke-width="0.250000" stroke-miterlimit="10"/></g><path id="e848onig43n546" d="" fill="none" stroke="rgb(251,176,59)" stroke-width="0.250000" stroke-miterlimit="10"/></g></svg>