<svg id="emdicdstu6sb1" xmlns="http://www.w3.org/2000/svg" xmlns:xlink="http://www.w3.org/1999/xlink" viewBox="0 0 24 24" shape-rendering="geometricPrecision" text-rendering="geometricPrecision"><style><![CDATA[#emdicdstu6sb3_tr {animation: emdicdstu6sb3_tr__tr 5000ms linear infinite normal forwards}@keyframes emdicdstu6sb3_tr__tr { 0% {transform: translate(11.300000px,13.700000px) rotate(0deg)} 18% {transform: translate(11.300000px,13.700000px) rotate(30deg)} 100% {transform: translate(11.300000px,13.700000px) rotate(358deg)} }#emdicdstu6sb3_ts {animation: emdicdstu6sb3_ts__ts 5000ms linear infinite normal forwards}@keyframes emdicdstu6sb3_ts__ts { 0% {transform: scale(1,1)} 12% {transform: scale(0.940000,0.940000)} 20% {transform: scale(0.900000,0.900000)} 32% {transform: scale(0.800000,0.800000)} 58% {transform: scale(0.800000,0.800000)} 64% {transform: scale(0.740000,0.740000)} 76% {transform: scale(0.730000,0.730000)} 100% {transform: scale(0.800000,0.800000)} }#emdicdstu6sb6_to {animation: emdicdstu6sb6_to__to 5000ms linear infinite normal forwards}@keyframes emdicdstu6sb6_to__to { 0% {transform: translate(13px,10px)} 72% {transform: translate(13px,10px)} 100% {transform: translate(13px,12px)} }#emdicdstu6sb7_to {animation: emdicdstu6sb7_to__to 5000ms linear infinite normal forwards}@keyframes emdicdstu6sb7_to__to { 0% {transform: translate(9px,11.305953px)} 6% {transform: translate(9px,11.305953px)} 30% {transform: translate(9px,9px)} 44% {transform: translate(10.017613px,11.146441px)} 72% {transform: translate(8px,10.544709px)} 86% {transform: translate(10px,10.243844px)} 92% {transform: translate(8px,10.114901px)} 100% {transform: translate(8.996566px,9.942978px)} }#emdicdstu6sb9_to {animation: emdicdstu6sb9_to__to 5000ms linear infinite normal forwards}@keyframes emdicdstu6sb9_to__to { 0% {transform: translate(11.596848px,19.539744px)} 8% {transform: translate(11.596848px,19.539744px)} 16% {transform: translate(11.769372px,19.453099px)} 26% {transform: translate(10.438568px,18.745498px)} 100% {transform: translate(11.701126px,19.416812px)} }#emdicdstu6sb11_to {animation: emdicdstu6sb11_to__to 5000ms linear infinite normal forwards}@keyframes emdicdstu6sb11_to__to { 0% {transform: translate(4.901595px,13.715842px)} 8% {transform: translate(4.901595px,13.715842px)} 20% {transform: translate(4.901595px,13.715842px)} 32% {transform: translate(4.526383px,15.733918px)} 40% {transform: translate(5.235657px,16.984841px)} 100% {transform: translate(3.486373px,13.072223px)} }#emdicdstu6sb13_to {animation: emdicdstu6sb13_to__to 5000ms linear infinite normal forwards}@keyframes emdicdstu6sb13_to__to { 0% {transform: translate(8.350000px,2.531785px)} 8% {transform: translate(10.366885px,3.311069px)} 16% {transform: translate(12.383771px,6.090354px)} 24% {transform: translate(15.885581px,13.232417px)} 34% {transform: translate(17.885581px,18.232417px)} 48% {transform: translate(21.885581px,18.232417px)} 56% {transform: translate(20.885581px,7.232417px)} 64% {transform: translate(10.885581px,5.232417px)} 72% {transform: translate(8.885581px,12.232417px)} 82% {transform: translate(13.885581px,18.232417px)} 92% {transform: translate(7.063556px,8.954557px)} 94% {transform: translate(8.879500px,6.096141px)} 100% {transform: translate(8.879500px,6.096141px)} }#emdicdstu6sb13_ts {animation: emdicdstu6sb13_ts__ts 5000ms linear infinite normal forwards}@keyframes emdicdstu6sb13_ts__ts { 0% {transform: scale(1.350000,1.350000)} 2% {transform: scale(1.170000,1.070000)} 8% {transform: scale(1.240000,1.240000)} 16% {transform: scale(1.350000,1.350000)} 24% {transform: scale(1.100000,1.100000)} 70% {transform: scale(1.360000,1.360000)} 78% {transform: scale(1.220000,1.210000)} 100% {transform: scale(1.220000,1.210000)} }]]></style><defs><filter id="emdicdstu6sb13-filter" x="-400%" width="600%" y="-400%" height="600%"><feGaussianBlur id="emdicdstu6sb13-filter-drop-shadow-0-blur" in="SourceAlpha" stdDeviation="0,0"/><feOffset id="emdicdstu6sb13-filter-drop-shadow-0-offset" dx="0.020000" dy="0.010000" result="tmp"/><feFlood id="emdicdstu6sb13-filter-drop-shadow-0-flood" flood-color="rgb(0,0,0)"/><feComposite id="emdicdstu6sb13-filter-drop-shadow-0-composite" operator="in" in2="tmp"/><feMerge id="emdicdstu6sb13-filter-drop-shadow-0-merge"><feMergeNode id="emdicdstu6sb13-filter-drop-shadow-0-merge-node-1"/><feMergeNode id="emdicdstu6sb13-filter-drop-shadow-0-merge-node-2" in="SourceGraphic"/></feMerge><feComponentTransfer id="emdicdstu6sb13-filter-brightness-0" result="result"><feFuncR id="emdicdstu6sb13-filter-brightness-0-R" type="linear" slope="1"/><feFuncG id="emdicdstu6sb13-filter-brightness-0-G" type="linear" slope="1"/><feFuncB id="emdicdstu6sb13-filter-brightness-0-B" type="linear" slope="1"/></feComponentTransfer><feComponentTransfer id="emdicdstu6sb13-filter-contrast-0" result="result"><feFuncR id="emdicdstu6sb13-filter-contrast-0-R" type="linear" slope="1.040000" intercept="-0.020000"/><feFuncG id="emdicdstu6sb13-filter-contrast-0-G" type="linear" slope="1.040000" intercept="-0.020000"/><feFuncB id="emdicdstu6sb13-filter-contrast-0-B" type="linear" slope="1.040000" intercept="-0.020000"/></feComponentTransfer></filter><filter id="emdicdstu6sb15-filter" x="-400%" width="600%" y="-400%" height="600%"><feGaussianBlur id="emdicdstu6sb15-filter-drop-shadow-0-blur" in="SourceAlpha" stdDeviation="0,0"/><feOffset id="emdicdstu6sb15-filter-drop-shadow-0-offset" dx="0" dy="0" result="tmp"/><feFlood id="emdicdstu6sb15-filter-drop-shadow-0-flood" flood-color="rgb(0,0,0)"/><feComposite id="emdicdstu6sb15-filter-drop-shadow-0-composite" operator="in" in2="tmp"/><feMerge id="emdicdstu6sb15-filter-drop-shadow-0-merge"><feMergeNode id="emdicdstu6sb15-filter-drop-shadow-0-merge-node-1"/><feMergeNode id="emdicdstu6sb15-filter-drop-shadow-0-merge-node-2" in="SourceGraphic"/></feMerge></filter></defs><g id="emdicdstu6sb2"><g id="emdicdstu6sb3_tr" transform="translate(11.300000,13.700000) rotate(0)"><g id="emdicdstu6sb3_ts" transform="scale(1,1)"><g id="emdicdstu6sb3" transform="translate(-11.300000,-13.700000)"><line id="emdicdstu6sb4" x1="16.900000" y1="12.500000" x2="16.900000" y2="12.500000" fill="none" stroke="rgb(251,176,59)" stroke-width="0.250000" stroke-miterlimit="10"/><ellipse id="emdicdstu6sb5" rx="9.600000" ry="9.600000" transform="matrix(1 0 0 1 11.30000000000000 13.70000000000000)" fill="rgb(0,170,255)" stroke="rgb(0,146,255)" stroke-width="0.250000" stroke-miterlimit="10"/><g id="emdicdstu6sb6_to" transform="translate(13,10)"><path id="emdicdstu6sb6" d="M16.600000,9.100000C16.700000,9.400000,16.700000,9.700000,16.600000,10C16.500000,10.600000,16.500000,11.100000,16.400000,11.700000C16.400000,11.900000,16.400000,12.100000,16.400000,12.300000C16.500000,12.500000,16.600000,12.600000,16.700000,12.700000C17.300000,13.300000,17.500000,14.300000,17.200000,15.100000C17.100000,15.300000,17.100000,15.500000,16.900000,15.600000C16.500000,15.900000,16,15.600000,15.600000,15.400000C15,15,14.500000,14.700000,13.900000,14.300000C13.600000,14.100000,13.400000,14,13.200000,13.700000C12.900000,13.300000,12.700000,13,12.600000,12.800000C11.600000,10.800000,11.100000,9.800000,10.900000,8.300000C10.800000,7.900000,10.700000,7.300000,10.700000,6.600000C11.800000,6.700000,12.700000,6.900000,13.300000,7.100000C13.800000,7.300000,14.400000,7.600000,15.500000,8.200000C16.100000,8.400000,16.500000,8.600000,16.600000,9.100000Z" transform="translate(-14.018914,-11.163459)" fill="rgb(251,176,59)" stroke="rgb(251,176,59)" stroke-width="0.250000" stroke-miterlimit="10"/></g><g id="emdicdstu6sb7_to" transform="translate(9,11.305953)"><path id="emdicdstu6sb7" d="M14.051247,10.858248C14.108048,11.078651,14.108048,11.299055,14.051247,11.519458C13.994446,11.960265,13.994446,12.327605,13.937645,12.768412C13.937645,12.915347,13.937645,13.062283,13.937645,13.209219C13.994446,13.356154,14.051247,13.429622,14.108048,13.503090C14.448852,13.943897,14.562454,14.678575,14.392052,15.266318C14.335251,15.413254,14.335251,15.560190,14.221649,15.633657C13.994446,15.854061,13.710442,15.633657,13.483239,15.486722C13.142434,15.192850,12.858430,14.972447,12.517625,14.678575C12.347223,14.531640,12.233621,14.458172,12.120020,14.237768C11.949617,13.943897,11.836016,13.723494,11.779215,13.576558C11.211207,12.107201,10.927203,11.372523,10.813602,10.270505C10.756801,9.976634,10.700000,9.535827,10.700000,9.021552C11.324809,9.095020,11.836016,9.241955,12.176821,9.388891C12.460825,9.535827,12.801629,9.756230,13.426438,10.197037C13.767243,10.343973,13.994446,10.490909,14.051247,10.858248Z" transform="skewX(-29) skewY(33) translate(-14.018914,-11.163459)" fill="rgb(251,176,59)" stroke="rgb(251,176,59)" stroke-width="0.250000" stroke-miterlimit="10"/></g><path id="emdicdstu6sb8" d="M18.500000,13.200000C18.600000,13,18.900000,12.800000,19.200000,12.900000C19.300000,13,19.500000,13.100000,19.500000,13.200000C20,13.900000,20.200000,14.800000,20.100000,15.700000C20,16.400000,19.800000,17,19.500000,17.700000C19.300000,18.100000,19.200000,18.600000,18.800000,18.800000C18.600000,19,18.300000,19,18,19.100000C17.700000,19.100000,17.400000,19.100000,17.100000,19C16.800000,18.900000,16.700000,18.500000,16.800000,18.300000C16.900000,18.100000,17.200000,18,17.400000,17.900000C18.100000,17.600000,18.900000,17.200000,19.300000,16.600000C19,16.400000,18.500000,16.300000,18.300000,15.900000C18.100000,15.500000,18.200000,14.800000,18.200000,14.400000C18.300000,14,18.300000,13.600000,18.500000,13.200000Z" fill="rgb(251,176,59)" stroke="rgb(251,176,59)" stroke-width="0.250000" stroke-miterlimit="10"/><g id="emdicdstu6sb9_to" transform="translate(11.596848,19.539744)"><path id="emdicdstu6sb9" d="M14.800000,17.700000C15.200000,18,15.200000,18.500000,15.200000,18.900000C15.200000,19.600000,15.100000,20.300000,15.100000,21C15.100000,21.100000,15.100000,21.200000,15.100000,21.300000C15.100000,21.400000,15,21.500000,14.900000,21.500000C14.700000,21.700000,14.400000,21.900000,14.200000,22C13.700000,22.200000,13.200000,22.100000,12.800000,21.900000C12.400000,21.700000,12,21.400000,11.600000,21C11.200000,20.700000,10.900000,20.400000,10.600000,20C10.400000,19.700000,10.200000,19.500000,9.900000,19.200000C9.500000,19,9.300000,18.900000,9,18.800000C8.300000,18.400000,7.700000,17.900000,7.200000,17.300000C7.800000,17.200000,8.400000,17.100000,9,17.200000C10.400000,17.500000,11.300000,18.700000,12.600000,19.400000C12.900000,19.600000,13.300000,19.800000,13.700000,19.800000C13.700000,19.200000,13.300000,18.700000,13.200000,18.200000C13.100000,17.600000,13.500000,17.600000,14,17.500000C14.200000,17.500000,14.600000,17.500000,14.800000,17.700000Z" transform="translate(-11.200000,-19.633799)" fill="rgb(251,176,59)" fill-rule="evenodd" stroke="rgb(251,176,59)" stroke-width="0.250000" stroke-miterlimit="10"/></g><path id="emdicdstu6sb10" d="" fill="none" stroke="rgb(251,176,59)" stroke-width="0.250000" stroke-miterlimit="10"/><g id="emdicdstu6sb11_to" transform="translate(4.901595,13.715842)"><path id="emdicdstu6sb11" d="M2.900000,15.100000C3.100000,15.700000,3.400000,16.400000,4,16.700000C4.100000,16.700000,4.200000,16.800000,4.300000,16.700000C4.500000,16.600000,4.500000,16.400000,4.500000,16.300000C4.500000,16,4.500000,15.700000,4.300000,15.500000C4.200000,15.300000,4,15.200000,3.800000,15C3.700000,14.900000,3.700000,14.700000,3.700000,14.500000C3.500000,13.200000,3.400000,11.900000,3.500000,10.500000C3.500000,10.300000,3.500000,10.100000,3.500000,10C3.500000,9.800000,3.600000,9.600000,3.500000,9.400000C3.300000,9.400000,3.200000,10.400000,3.100000,10.600000C3,10.900000,3,11.200000,2.900000,11.500000C2.800000,11.800000,2.800000,12,2.700000,12.300000C2.600000,12.700000,2.400000,13.100000,2.500000,13.600000C2.500000,14.100000,2.800000,14.600000,2.900000,15.100000Z" transform="translate(-3.486373,-13.072223)" fill="rgb(251,176,59)" stroke="rgb(251,176,59)" stroke-width="0.250000" stroke-miterlimit="10"/></g><path id="emdicdstu6sb12" d="" fill="none" stroke="rgb(251,176,59)" stroke-width="0.250000" stroke-miterlimit="10"/></g></g></g><g id="emdicdstu6sb13_to" transform="translate(8.350000,2.531785)"><g id="emdicdstu6sb13_ts" transform="scale(1.350000,1.350000)"><g id="emdicdstu6sb13" transform="translate(-5.440645,-3.259730)" filter="url(#emdicdstu6sb13-filter)"><line id="emdicdstu6sb14" x1="5.500000" y1="3.100000" x2="10.200000" y2="1.900000" fill="none" stroke="rgb(251,176,59)" stroke-width="0.250000" stroke-miterlimit="10"/><ellipse id="emdicdstu6sb15" rx="2.300000" ry="2.200000" transform="matrix(0.25770000000000 -0.96620000000000 0.96620000000000 0.25770000000000 3.39964000000000 3.25973000000000)" filter="url(#emdicdstu6sb15-filter)" fill="none" stroke="rgb(251,176,59)" stroke-width="0.250000" stroke-miterlimit="10"/></g></g></g></g><g id="emdicdstu6sb16" display="none"><image id="emdicdstu6sb17" width="800" height="532" xlink:href="598b825715010cb1b499b43f1716818b.jpg" preserveAspectRatio="xMidYMid meet" transform="matrix(0 0 0 0 -93.59999999999999 -6.94400000000000)"/><rect id="emdicdstu6sb18" width="13.300000" height="13.300000" rx="0" ry="0" transform="matrix(1 0 0 1 5.50000000000000 10.10000000000000)" fill="rgb(255,255,255)" stroke="rgb(251,176,59)" stroke-width="0.750000" stroke-miterlimit="10"/><path id="emdicdstu6sb19" d="" fill="rgb(255,255,255)" stroke="rgb(251,176,59)" stroke-width="0.750000" stroke-miterlimit="10"/><line id="emdicdstu6sb20" x1="9.700000" y1="10.100000" x2="9.700000" y2="23.100000" fill="none" stroke="rgb(251,176,59)" stroke-width="0.750000" stroke-miterlimit="10"/><line id="emdicdstu6sb21" x1="15.200000" y1="10.100000" x2="15.200000" y2="23.100000" fill="none" stroke="rgb(251,176,59)" stroke-width="0.750000" stroke-miterlimit="10"/><path id="emdicdstu6sb22" d="M4.600000,9.300000L19.700000,9.300000L4.600000,9.300000Z" fill="none" stroke="rgb(251,176,59)" stroke-width="0.750000" stroke-miterlimit="10"/><g id="emdicdstu6sb23"><path id="emdicdstu6sb24" d="M12.100000,9C11.800000,8.900000,11.500000,8.900000,11.200000,8.700000C11.100000,8.600000,10.900000,8.600000,10.800000,8.400000C10.700000,8.300000,10.800000,8.100000,10.800000,7.900000C10.800000,7.900000,10.800000,7.900000,10.800000,7.900000C10.800000,7.900000,10.800000,7.900000,10.800000,7.900000C11,7.900000,11.300000,8,11.400000,8.200000C11.500000,8.300000,11.600000,8.400000,11.800000,8.500000C12,8.700000,12,8.800000,12.100000,9C12.200000,9,12.200000,9,12.300000,9C12.400000,9,12.600000,8.900000,12.700000,8.900000C12.800000,8.900000,12.900000,8.800000,12.900000,8.800000C13.100000,8.700000,13.200000,8.600000,13.300000,8.400000C13.300000,8.300000,13.300000,8.200000,13.200000,8.200000C13.200000,8.200000,13.100000,8.200000,13.100000,8.200000C12.900000,8.200000,12.700000,8.200000,12.500000,8.300000C12.400000,8.400000,12.300000,8.600000,12.300000,8.700000C12.300000,8.800000,12.300000,8.900000,12.200000,9C12.200000,9,12.200000,9.100000,12.200000,9.100000L12.100000,9Z" fill="none" stroke="rgb(251,176,59)" stroke-width="0.250000" stroke-miterlimit="10"/></g><path id="emdicdstu6sb25" d="" fill="none" stroke="rgb(251,176,59)" stroke-width="0.250000" stroke-miterlimit="10"/></g></svg>